<?xml version="1.0" encoding="utf-8"?>
<!-- Uploaded to: SVG Repo, www.svgrepo.com, Generator: SVG Repo Mixer Tools -->
<svg width="800px" height="800px" viewBox="0 0 1024 1024" class="icon"  version="1.1" xmlns="http://www.w3.org/2000/svg"><path d="M761.9 362.5c3.9 40.1-25.5 75.8-65.5 79.7-40.1 3.9-75.8-25.5-79.7-65.5l145.2-14.2z" fill="#FFD632" /><path d="M689.2 448c-39.9 0-74.1-30.4-78-70.9l-0.5-5.5 156.1-15.2 0.5 5.5c2 20.9-4.2 41.2-17.5 57.4-13.3 16.2-32.1 26.2-53 28.2-2.5 0.4-5 0.5-7.6 0.5z m-66.3-66.5c6.1 34.2 37.7 58.6 72.9 55.2 35.2-3.4 61.5-33.4 60.9-68.1l-133.8 12.9zM432.8 312.9L338.4 267c-21.5-10.4-30.6-36.3-20.2-57.9 10.4-21.5 36.3-30.6 57.9-20.3l63.8 31.1c16 7.8 35.4 1 43.2-15l9.9 4.8c-10.4 21.5-36.4 30.5-57.9 20.1l-63.8-31.1c-7.8-3.7-16.5-4.2-24.7-1.4-8.2 2.9-14.7 8.7-18.5 16.5-7.7 16.1-1 35.4 15.1 43.2l94.4 45.9-4.8 10z" fill="#333336" /><path d="M565.5 412.3v-94.1l-93.3-126.6c-5.5-7.5-6-17.5-1.1-25.4 16.8-27.2 41.7-39.7 57.2-45.1 8.1-2.9 17.2-0.8 23.4 5.3l260.2 255.2c2 1.9 1.1 5.3-1.6 6-25.4 6.7-127.7 31.4-242.8 26.8-1.1-0.1-2-1-2-2.1z" fill="#68A240" /><path d="M596.2 420.4c-9.5 0-19.2-0.2-28.9-0.6-4.1-0.2-7.2-3.5-7.2-7.5V320l-92.3-125.2c-6.9-9.3-7.4-21.7-1.3-31.6 17.2-27.8 42.1-41.1 60.1-47.4 10-3.5 21.4-0.9 29 6.5l260.2 255.2c2.3 2.3 3.3 5.7 2.4 8.8-0.8 3.1-3.3 5.6-6.4 6.4-26.1 7-113.1 27.7-215.6 27.7zM571 409c107.8 3.7 203-17.8 234.6-25.9L547.8 130.2c-4.7-4.6-11.6-6.1-17.7-4-16.2 5.7-38.9 17.8-54.3 42.8-3.7 6-3.4 13.5 0.8 19.3L571 316.4V409zM240.7 674.7l-9.8-5L409 318l23 7.3-3.3 10.5-14.1-4.5z" fill="#333336" /><path d="M541.6 285.4L515 249.9l-65.7 49.2c-1.2 0.9-2.3 1.9-3.3 3.1-3.3 2.3-6 5.4-7.7 9.4L338 698.1l40.6 17.8L477 333.7l64.6-48.3z" fill="#D5D9CF" /><path d="M382.4 723.5l-50.8-22.2L433 309.7l0.2-0.4c2-4.5 5.1-8.4 9.1-11.3 1.1-1.2 2.4-2.3 3.7-3.3l70.1-52.5 33.1 44.3-67.4 50.4-99.4 386.6z m-37.9-28.6l30.4 13.3 97.3-377.7 61.7-46.2-20-26.7-61.3 45.9c-0.9 0.7-1.8 1.5-2.5 2.3l-0.4 0.5-0.6 0.4c-2.4 1.7-4.4 4-5.6 6.7l-99 381.5z" fill="#333336" /><path d="M212.9 664.5c-5.1 12.6 1 26.9 13.6 32l109.2 44.1c11.5 4.7 19.1 15.9 19.1 28.3v78.9H404V740.3c0-14.9-9.1-28.4-22.9-34L245 650.9c-12.7-5.1-27 1-32.1 13.6z" fill="#D5D9CF" /><path d="M409.4 853.3h-60.2v-84.4c0-10.3-6.1-19.4-15.7-23.2l-109.2-44.1c-7.4-3-13.3-8.7-16.4-16.1s-3.2-15.6-0.2-23c3-7.5 8.8-13.3 16.2-16.4 7.4-3.1 15.6-3.2 23-0.2L383 701.3c16 6.5 26.3 21.9 26.3 39.1v112.9z m-49.1-11h38.2v-102c0-12.8-7.6-24.1-19.5-28.9L242.8 656c-4.7-1.9-9.9-1.9-14.6 0.1-4.7 2-8.3 5.7-10.2 10.4-1.9 4.7-1.9 9.9 0.1 14.6 2 4.7 5.7 8.3 10.4 10.2l109.2 44.1c13.7 5.5 22.5 18.6 22.5 33.4v73.5z" fill="#333336" /><path d="M671.6 904.2H268c-7 0-12.7-5.7-12.7-12.7v-31.1c0-7 5.7-12.7 12.7-12.7h403.6c7 0 12.7 5.7 12.7 12.7v31.1c0 7.1-5.7 12.7-12.7 12.7z" fill="#68A240" /><path d="M671.6 909.7H268c-10 0-18.2-8.2-18.2-18.2v-31.1c0-10 8.2-18.2 18.2-18.2h403.6c10 0 18.2 8.2 18.2 18.2v31.1c0 10.1-8.1 18.2-18.2 18.2zM268 853.3c-4 0-7.2 3.2-7.2 7.2v31.1c0 4 3.2 7.2 7.2 7.2h403.6c4 0 7.2-3.2 7.2-7.2v-31.1c0-4-3.2-7.2-7.2-7.2H268z" fill="#333336" /><path d="M460 322.6m-28 0a28 28 0 1 0 56 0 28 28 0 1 0-56 0Z" fill="#68A240" /><path d="M460 356.1c-18.5 0-33.5-15-33.5-33.5s15-33.5 33.5-33.5 33.5 15 33.5 33.5-15 33.5-33.5 33.5z m0-56c-12.4 0-22.5 10.1-22.5 22.5s10.1 22.5 22.5 22.5 22.5-10.1 22.5-22.5-10.1-22.5-22.5-22.5z" fill="#333336" /><path d="M563.6 809.8v8h-62.2v-8c0-7.9 4.1-15.3 10.9-19.2 4.6-2.7 11.1-4.6 20.2-4.6 9.7 0 16.4 2.2 21 5.1 6.3 4 10.1 11.2 10.1 18.7z" fill="#FFD632" /><path d="M569.1 823.3h-73.2v-13.5c0-9.9 5.2-19.1 13.7-24 6.2-3.6 13.9-5.4 22.9-5.4 9.5 0 17.6 2 23.9 6 7.8 4.9 12.7 13.9 12.7 23.4v13.5z m-62.3-11H558v-2.5c0-5.8-2.9-11.2-7.5-14.1-4.6-2.9-10.6-4.3-18.1-4.3-7.1 0-13 1.3-17.4 3.9-5 2.9-8.2 8.5-8.2 14.5v2.5z" fill="#333336" /><path d="M582.3 847.8H482v-22.6c0-4.1 3.3-7.4 7.4-7.4h85.5c4.1 0 7.4 3.3 7.4 7.4v22.6z" fill="#FFD632" /><path d="M587.8 853.3H476.5v-28.1c0-7.1 5.8-12.9 12.9-12.9h85.5c7.1 0 12.9 5.8 12.9 12.9v28.1z m-100.3-11h89.3v-17.1c0-1.1-0.9-1.9-1.9-1.9h-85.5c-1.1 0-1.9 0.9-1.9 1.9v17.1z" fill="#333336" /><path d="M503 817.8h8v30h-8zM528.2 817.8h8v30h-8zM553.2 817.8h8v30h-8z" fill="#333336" /></svg>