<?xml version="1.0" encoding="utf-8"?>
<!-- Uploaded to: SVG Repo, www.svgrepo.com, Generator: SVG Repo Mixer Tools -->
<svg width="800px" height="800px" viewBox="0 0 1024 1024" class="icon"  version="1.1" xmlns="http://www.w3.org/2000/svg"><path d="M404.3 529.1h37.9v53.7h-37.9z" fill="#D5D9CF" /><path d="M447.7 588.3h-48.9v-64.7h48.9v64.7z m-37.9-11h26.9v-42.7h-26.9v42.7z" fill="#333336" /><path d="M585.1 529.1H623v53.7h-37.9z" fill="#D5D9CF" /><path d="M628.5 588.3h-48.9v-64.7h48.9v64.7z m-37.9-11h26.9v-42.7h-26.9v42.7z" fill="#333336" /><path d="M650.5 751.5H530.3V628.1h-35.8v123.4H378.7c-2.3 0-4.2 1.9-4.2 4.2v19.9c0 2.3 1.9 4.2 4.2 4.2h271.8c2.3 0 4.2-1.9 4.2-4.2v-19.9c0-2.3-1.9-4.2-4.2-4.2z" fill="#D5D9CF" /><path d="M650.5 785.3H378.7c-5.4 0-9.7-4.4-9.7-9.7v-19.9c0-5.4 4.4-9.7 9.7-9.7h110.4V622.6h46.8V746h114.6c5.4 0 9.7 4.4 9.7 9.7v19.9c0 5.3-4.4 9.7-9.7 9.7z m-270.6-11h269.2V757H524.8V633.6H500V757H379.9v17.3z" fill="#333336" /><path d="M214.1 417.4h595.7v115.7H214.1z" fill="#D8A128" /><path d="M815.4 538.6H208.6V411.9h606.7v126.7z m-595.8-11h584.7V422.9H219.6v104.7z" fill="#333336" /><path d="M188.1 429.7h55.6v402h-55.6z" fill="#FFD632" /><path d="M249.3 837.2h-66.6v-413h66.6v413z m-55.7-11h44.6v-391h-44.6v391z" fill="#333336" /><path d="M784.3 429.7h54.4v402h-54.4z" fill="#FFD632" /><path d="M844.2 837.2h-65.4v-413h65.4v413z m-54.4-11h43.4v-391h-43.4v391z" fill="#333336" /><path d="M167 378.4h689.9v61.3H167z" fill="#FFD632" /><path d="M862.5 445.2h-701v-72.3h700.9v72.3z m-690-11h678.9v-50.3H172.5v50.3z" fill="#333336" /><path d="M662 533.4H365.1l-19-304.9c-1.1-19.7 14.5-36.3 34.3-36.3h266.4c19.7 0 35.4 16.6 34.3 36.3L662 533.4z" fill="#68A240" /><path d="M667.1 538.9H359.9l-19.3-310c-0.6-11.1 3.2-21.6 10.8-29.6 7.6-8 17.9-12.5 28.9-12.5h266.4c11.1 0 21.3 4.4 28.9 12.5 7.6 8 11.4 18.6 10.8 29.6l-19.3 310z m-296.9-11h286.6l18.7-299.7c0.5-8-2.3-15.6-7.8-21.4-5.5-5.8-12.9-9-20.9-9H380.3c-8 0-15.4 3.2-20.9 9-5.5 5.8-8.3 13.4-7.8 21.4l18.6 299.7z" fill="#333336" /><path d="M662 628.1H365v-39.3c0-12 9.8-21.8 21.8-21.8h253.4c12 0 21.8 9.8 21.8 21.8v39.3z" fill="#68A240" /><path d="M667.5 633.6h-308v-44.8c0-15.1 12.3-27.3 27.3-27.3h253.4c15.1 0 27.3 12.3 27.3 27.3v44.8z m-297-11h286v-33.8c0-9-7.3-16.3-16.3-16.3H386.8c-9 0-16.3 7.3-16.3 16.3v33.8z" fill="#333336" /><path d="M265.3 400.7h67.4v39.8h-67.4z" fill="#68A240" /><path d="M338.2 446.1h-78.4v-50.8h78.4v50.8z m-67.4-11h56.4v-28.8h-56.4v28.8z" fill="#333336" /><path d="M368.5 600.4h-75V435.3h11v154.1h64z" fill="#333336" /><path d="M764.208 440.61h-67.4v-39.8h67.4z" fill="#68A240" /><path d="M769.7 446.1h-78.4v-50.8h78.4v50.8z m-67.5-11h56.4v-28.8h-56.4v28.8z" fill="#333336" /><path d="M736 600.4h-75.1v-11H725V435.3h11z" fill="#333336" /><path d="M405.9 802.7m-28.9 0a28.9 28.9 0 1 0 57.8 0 28.9 28.9 0 1 0-57.8 0Z" fill="#D5D9CF" /><path d="M405.9 837.2c-19 0-34.4-15.4-34.4-34.4s15.4-34.4 34.4-34.4 34.4 15.4 34.4 34.4-15.4 34.4-34.4 34.4z m0-57.9c-12.9 0-23.4 10.5-23.4 23.4s10.5 23.4 23.4 23.4 23.4-10.5 23.4-23.4-10.5-23.4-23.4-23.4z" fill="#333336" /><path d="M627.3 802.7m-28.9 0a28.9 28.9 0 1 0 57.8 0 28.9 28.9 0 1 0-57.8 0Z" fill="#D5D9CF" /><path d="M627.3 837.2c-19 0-34.4-15.4-34.4-34.4s15.4-34.4 34.4-34.4 34.4 15.4 34.4 34.4-15.4 34.4-34.4 34.4z m0-57.9c-12.9 0-23.4 10.5-23.4 23.4s10.5 23.4 23.4 23.4 23.4-10.5 23.4-23.4-10.5-23.4-23.4-23.4z" fill="#333336" /><path d="M476.6 629.1h71.6v42.4h-71.6z" fill="#D5D9CF" /><path d="M553.8 677h-82.6v-53.4h82.6V677z m-71.7-11h60.6v-31.4h-60.6V666z" fill="#333336" /></svg>